<?xml version="1.0" standalone="no"?>
<!DOCTYPE svg PUBLIC "-//W3C//DTD SVG 20010904//EN"
 "http://www.w3.org/TR/2001/REC-SVG-20010904/DTD/svg10.dtd">
<svg version="1.0" xmlns="http://www.w3.org/2000/svg"
 width="1335.000000pt" height="1335.000000pt" viewBox="0 0 1335.000000 1335.000000"
 preserveAspectRatio="xMidYMid meet">
<metadata>
Created by potrace 1.14, written by Peter Selinger 2001-2017
</metadata>
<g transform="translate(0.000000,1335.000000) scale(0.100000,-0.100000)"
fill="#000000" stroke="none">
<path d="M6737 11524 c-1 -1 -76 -4 -167 -8 -91 -3 -176 -8 -190 -10 -14 -3
-56 -7 -93 -11 -37 -3 -76 -8 -85 -10 -9 -1 -42 -6 -72 -10 -30 -4 -64 -9 -75
-11 -10 -2 -35 -6 -55 -9 -20 -3 -47 -8 -60 -10 -14 -3 -41 -8 -60 -11 -64 -9
-398 -94 -497 -125 -389 -123 -743 -280 -1060 -471 -64 -39 -85 -48 -100 -40
-22 13 -118 112 -198 207 -119 141 -191 197 -342 267 -133 61 -244 96 -393
123 -73 14 -229 20 -320 12 -305 -24 -629 -145 -860 -322 -66 -51 -180 -158
-180 -169 0 -13 59 -62 132 -111 77 -52 94 -61 243 -140 164 -86 220 -120 325
-195 91 -65 156 -103 163 -98 2 2 10 -2 18 -9 39 -32 215 -82 344 -98 101 -13
280 -7 379 12 26 5 22 -1 -39 -58 -487 -456 -855 -965 -1129 -1562 -20 -43
-36 -80 -36 -82 0 -3 -11 -28 -24 -57 -82 -179 -221 -614 -262 -821 -2 -10 -6
-27 -9 -37 -3 -10 -7 -32 -10 -49 -2 -17 -6 -38 -9 -48 -3 -10 -7 -34 -10 -53
-3 -19 -8 -46 -10 -60 -5 -26 -21 -134 -31 -205 -3 -22 -8 -67 -11 -100 -3
-33 -7 -73 -9 -90 -9 -69 -18 -310 -18 -450 1 -238 13 -419 44 -640 11 -77 22
-156 25 -175 2 -19 20 -105 38 -190 19 -85 30 -159 26 -165 -14 -18 -18 -71
-6 -92 6 -12 23 -31 38 -43 16 -12 28 -28 28 -36 0 -34 97 -316 177 -514 50
-123 175 -383 233 -485 13 -22 34 -60 48 -85 14 -25 40 -68 59 -97 18 -29 33
-56 33 -62 0 -5 3 -11 8 -13 4 -1 33 -43 66 -93 60 -92 263 -366 311 -420 15
-16 43 -50 63 -74 89 -105 283 -304 418 -426 449 -408 955 -721 1519 -940 92
-36 333 -117 385 -131 8 -2 83 -21 167 -43 83 -22 164 -42 180 -45 15 -2 62
-11 103 -20 108 -21 127 -24 211 -36 41 -6 84 -12 95 -14 18 -4 105 -13 199
-21 197 -18 551 -24 712 -12 l51 3 21 -46 c80 -177 309 -284 501 -236 95 24
147 53 218 123 69 69 106 136 126 235 l13 63 49 13 c654 177 1261 482 1774
891 106 84 118 94 242 204 665 590 1173 1395 1421 2252 34 115 47 165 53 193
4 24 11 25 136 28 68 1 135 7 151 13 15 6 27 8 27 6 0 -2 39 9 88 26 96 34
181 81 257 143 50 41 62 53 121 118 35 39 104 143 104 158 0 6 -22 -6 -49 -25
-107 -77 -306 -153 -446 -170 -50 -6 -228 -6 -255 0 -14 3 -38 8 -55 10 -75
13 -171 47 -255 90 -190 96 -342 256 -443 465 -20 41 -49 125 -65 187 l-29
111 -12 -46 c-63 -247 -8 -536 139 -732 31 -41 39 -61 35 -80 -3 -14 -7 -38
-9 -55 -5 -39 -53 -276 -60 -295 -3 -8 -8 -26 -10 -40 -3 -14 -17 -68 -31
-120 -14 -52 -27 -102 -30 -110 -23 -92 -138 -394 -208 -550 -51 -114 -189
-382 -211 -410 -6 -8 -20 -31 -30 -50 -23 -44 -223 -345 -239 -362 -7 -7 -40
-49 -74 -93 -34 -44 -73 -93 -88 -110 -14 -16 -45 -52 -68 -80 -140 -165 -397
-408 -603 -572 -375 -297 -844 -557 -1284 -711 l-115 -40 -28 39 c-151 210
-482 232 -672 45 -66 -66 -117 -160 -129 -239 -3 -25 -9 -28 -77 -37 -197 -28
-761 -31 -919 -6 -14 2 -52 7 -85 11 -141 15 -322 46 -474 81 -63 14 -121 28
-130 29 -9 2 -16 4 -16 5 0 1 -7 3 -15 5 -29 6 -136 37 -245 72 -366 117 -806
332 -1125 551 -91 63 -240 171 -250 182 -3 3 -25 21 -50 40 -133 101 -425 382
-574 553 -138 159 -351 449 -445 608 -105 175 -217 391 -281 539 -18 41 -40
93 -50 115 -36 83 -151 422 -165 485 -1 8 -8 34 -15 58 -8 32 -8 52 0 77 14
41 5 77 -25 105 -26 24 -34 56 -65 250 -16 97 -18 109 -26 180 -4 36 -8 74
-10 85 -24 202 -23 774 1 904 1 9 6 45 10 81 3 36 13 106 21 155 8 50 17 104
20 120 2 17 18 93 35 170 129 586 375 1138 726 1630 51 72 105 146 122 165
l29 35 -33 -135 c-19 -74 -36 -146 -39 -160 -2 -14 -8 -40 -12 -59 -4 -19 -44
-96 -90 -171 -181 -299 -367 -724 -440 -1005 -43 -164 -73 -288 -78 -315 -3
-19 -8 -46 -11 -60 -8 -37 -14 -71 -20 -115 -4 -22 -10 -67 -15 -100 -10 -62
-15 -108 -29 -260 -9 -89 -7 -644 3 -698 2 -15 7 -60 11 -100 4 -40 9 -79 10
-88 2 -9 6 -40 10 -70 3 -30 8 -62 11 -72 3 -10 7 -30 9 -45 3 -22 26 -134 50
-243 71 -325 252 -785 430 -1094 239 -414 491 -729 851 -1062 297 -274 694
-534 1094 -716 83 -38 253 -108 270 -112 8 -2 46 -15 83 -29 83 -31 376 -115
462 -132 11 -2 31 -6 45 -9 160 -35 404 -70 565 -82 195 -14 612 -8 778 12
215 27 381 57 562 101 117 29 357 100 400 119 17 7 64 25 105 40 303 113 689
323 970 528 290 212 573 481 796 757 235 290 466 669 594 975 59 142 118 295
114 295 -3 0 0 10 7 21 22 42 113 362 133 469 2 14 11 59 20 100 27 132 46
274 66 485 9 99 7 647 -3 695 -3 14 -8 57 -12 95 -12 136 -56 382 -101 560
-190 760 -567 1423 -1119 1970 -183 182 -208 203 -495 429 -62 48 -303 202
-440 280 -93 53 -340 170 -467 222 -118 48 -290 108 -303 107 -3 -1 -13 3 -22
8 -13 7 -144 45 -218 64 -143 35 -275 62 -405 80 -22 4 -47 8 -55 10 -8 2 -49
7 -90 10 -41 4 -86 8 -100 11 -48 7 -285 18 -415 17 -199 0 -377 -13 -555 -39
-19 -3 -55 -7 -80 -10 -25 -3 -79 -12 -120 -21 -41 -8 -86 -17 -100 -20 -153
-27 -460 -119 -660 -196 -272 -104 -562 -255 -810 -420 -74 -50 -300 -214
-310 -226 -3 -3 -43 -38 -90 -77 -102 -86 -108 -92 -232 -213 l-98 -95 19 60
c11 32 32 100 46 149 31 104 35 108 260 290 98 79 90 73 200 151 253 178 558
352 800 454 11 5 43 18 70 30 28 12 64 27 80 35 83 36 379 132 535 173 94 25
236 56 309 68 18 3 43 8 55 10 11 2 41 7 66 10 25 3 52 8 61 9 9 2 59 8 110
14 52 6 114 13 139 17 74 10 608 13 705 3 190 -18 283 -28 311 -33 33 -6 98
-16 129 -20 219 -29 706 -169 970 -281 150 -63 410 -192 524 -259 51 -31 95
-56 96 -56 2 0 52 -32 112 -72 579 -383 1053 -878 1408 -1470 30 -50 55 -94
55 -99 0 -4 6 -14 13 -21 12 -12 177 -339 177 -350 0 -3 12 -32 27 -64 15 -33
28 -61 28 -64 0 -3 20 -54 43 -113 64 -164 166 -508 188 -637 3 -14 11 -56 19
-95 15 -71 42 -242 51 -325 4 -35 1 -50 -13 -65 -10 -11 -29 -35 -42 -53 l-23
-33 27 -66 c86 -216 294 -422 562 -557 77 -39 197 -89 243 -102 254 -69 460
-60 653 29 40 19 79 42 87 51 23 29 23 242 -1 347 -10 46 -21 89 -23 94 -2 6
-7 21 -12 35 -25 80 -115 218 -195 301 -141 144 -358 245 -547 254 -34 1 -65
4 -66 6 -2 2 -7 27 -10 54 -4 28 -8 61 -11 75 -2 14 -7 48 -10 75 -6 45 -58
314 -70 358 -3 9 -7 25 -9 35 -46 192 -143 499 -192 609 -8 17 -14 34 -14 38
0 15 -135 313 -193 425 -477 929 -1240 1684 -2167 2146 -384 191 -755 319
-1230 424 -25 5 -61 12 -80 15 -19 3 -60 10 -90 15 -90 16 -190 29 -270 35
-41 4 -86 8 -99 10 -60 10 -505 26 -514 19z m-3327 -474 c148 -22 350 -77 510
-140 134 -53 186 -74 195 -80 6 -4 31 -14 58 -24 26 -10 47 -21 47 -24 0 -4
-28 -25 -63 -47 -34 -22 -95 -63 -136 -92 -47 -33 -78 -50 -85 -44 -6 4 -36
22 -66 38 -30 17 -98 54 -149 83 -179 99 -418 210 -492 229 -127 32 -271 47
-483 50 -55 0 -97 3 -95 5 2 2 40 7 84 11 44 4 82 8 85 10 3 2 38 6 78 10 40
4 98 10 130 15 31 4 97 8 147 9 49 1 91 3 92 5 3 3 65 -3 143 -14z"/>
</g>
</svg>
