<svg version="1.2" xmlns="http://www.w3.org/2000/svg" viewBox="0 0 24 54" width="24" height="54">
	<title>noun-scroll-down-792665-svg</title>
	<style>
		.s0 { fill: #ffffff } 
	</style>
	<g id="Layer 2">
		<g id="Layer 1">
			<path id="Layer" fill-rule="evenodd" class="s0" d="m12 32c-1.6 0-3.1-0.3-4.6-0.9-1.4-0.6-2.8-1.5-3.9-2.6-1.1-1.1-2-2.5-2.6-3.9-0.6-1.5-0.9-3-0.9-4.6v-8c0-3.2 1.3-6.2 3.5-8.5 2.3-2.2 5.3-3.5 8.5-3.5 3.2 0 6.2 1.3 8.5 3.5 2.2 2.3 3.5 5.3 3.5 8.5v8c0 1.6-0.3 3.1-0.9 4.6-0.6 1.4-1.5 2.8-2.6 3.9-1.1 1.1-2.5 2-3.9 2.6-1.5 0.6-3 0.9-4.6 0.9zm0-30c-1.3 0-2.6 0.3-3.8 0.8-1.2 0.5-2.3 1.2-3.3 2.1-0.9 1-1.6 2.1-2.1 3.3-0.5 1.2-0.8 2.5-0.8 3.8v8c0 2.7 1.1 5.2 2.9 7.1 1.9 1.8 4.4 2.9 7.1 2.9 2.7 0 5.2-1.1 7.1-2.9 1.8-1.9 2.9-4.4 2.9-7.1v-8c0-1.3-0.3-2.6-0.8-3.8-0.5-1.2-1.2-2.3-2.1-3.3-1-0.9-2.1-1.6-3.3-2.1-1.2-0.5-2.5-0.8-3.8-0.8z"/>
			<path id="Layer" class="s0" d="m12 42.4l-5.7-5.6q-0.2-0.3-0.2-0.7 0-0.4 0.3-0.7 0.3-0.3 0.7-0.3 0.4 0 0.7 0.3l4.2 4.2 4.2-4.2q0.3-0.3 0.7-0.3 0.4 0 0.7 0.3 0.3 0.3 0.3 0.7 0 0.4-0.3 0.7z"/>
			<path id="Layer" class="s0" d="m12 13q-0.2 0-0.4-0.1-0.2-0.1-0.3-0.2-0.1-0.1-0.2-0.3-0.1-0.2-0.1-0.4v-6q0-0.4 0.3-0.7 0.3-0.3 0.7-0.3 0.4 0 0.7 0.3 0.3 0.3 0.3 0.7v6q0 0.2-0.1 0.4-0.1 0.2-0.2 0.3-0.1 0.1-0.3 0.2-0.2 0.1-0.4 0.1z"/>
		</g>
	</g>
</svg>